<svg version="1.2" baseProfile="tiny-ps" xmlns="http://www.w3.org/2000/svg" viewBox="0 0 1024 1024" width="1024" height="1024">
	<title>image</title>
	<style>
		tspan { white-space:pre }
		.shp0 { fill: #000000 } 
	</style>
	<path id="Logo" class="shp0" d="M188.09 57.06C190.11 57.02 195.21 58.85 199.43 61.12C203.65 63.39 212.2 68.94 218.43 73.46C224.67 77.98 236.37 87.03 244.45 93.57C252.53 100.12 269.05 114.22 281.16 124.92C293.27 135.61 314.89 155.25 355.22 192.76L407.92 141.05L407.92 56.99L470.64 56.99L470.64 130.38L512 94.35C534.75 74.54 553.81 58.33 554.37 58.33C554.92 58.33 567.07 71.07 581.39 86.64C595.7 102.21 622.04 130.89 639.94 150.36C657.83 169.82 674.04 187.47 679.46 193.37L698.81 176.93C709.45 167.88 725.96 153.79 752.85 130.74L752.18 58.33L805.55 58.33L805.55 83.68C805.55 97.62 806 109 806.55 108.97C807.11 108.93 828.27 99.64 899.62 67.72L1024.61 193.76L1023.89 231.79C1023.5 252.71 1021.04 373.4 1018.44 499.99C1014.38 697.08 1013.4 731.12 1011.59 736.84C1010.43 740.51 1005.78 750.41 1001.26 758.85C996.75 767.29 985.83 785.01 977.02 798.22C968.2 811.43 954.45 830.94 946.48 841.58C938.5 852.22 929.19 863.84 925.8 867.41C922.41 870.97 915.44 877.27 910.3 881.4C905.16 885.54 890.15 896.17 876.94 905.03C863.73 913.88 843.32 926.86 831.57 933.87C819.83 940.88 801.97 951.21 791.88 956.81C781.26 962.71 772.83 966.61 771.86 966.06C770.94 965.53 747.68 947.92 720.16 926.91C692.64 905.9 644.15 868.81 612.41 844.47C554.87 800.35 554.69 800.22 551.6 802.55C549.9 803.84 512.22 838.78 467.87 880.2C423.52 921.62 386.64 955.51 385.91 955.51C385.17 955.5 350.04 932.47 307.85 904.32C265.65 876.17 202.9 834.23 168.41 811.13C133.92 788.03 105.54 769.07 105.36 769C105.18 768.92 108.78 767.42 113.37 765.65C117.95 763.89 127.71 759.39 135.05 755.66C142.39 751.92 153.5 744.9 159.74 740.05C165.97 735.21 174.93 727.1 179.65 722.03C184.36 716.96 191.17 708.61 194.78 703.48C198.39 698.34 204.07 688.73 207.39 682.13C210.72 675.52 215.43 664.11 217.87 656.78C220.3 649.44 223.52 637.43 225.02 630.09C226.52 622.75 228.29 608.64 228.97 598.73C229.72 587.8 229.72 572.59 228.98 560.04C228.3 548.66 226.79 533.35 225.62 526.01C224.44 518.67 221.71 506.36 219.55 498.66C217.4 490.95 212.62 478.34 208.93 470.64C205.25 462.93 199.64 453.02 196.47 448.62C193.3 444.22 187.19 437.07 182.89 432.73C178.6 428.39 170.88 422.07 165.74 418.68C160.6 415.29 151.6 410.52 145.72 408.08C138.99 405.28 131.85 403.38 126.38 402.94C118.08 402.28 117.44 402.44 105.69 411.38L104.86 426C104.41 434.04 103.96 455.17 103.69 505.33L100.69 504.5C99.04 504.04 93.49 500.92 88.35 497.56C83.21 494.2 74.71 487.22 69.45 482.05C62.89 475.58 58.75 470.13 56.24 464.63C54.23 460.23 52.02 452.42 51.33 447.28C50.5 441.2 50.57 427.95 51.52 409.26C52.6 387.98 53.69 377.98 55.73 370.56C57.25 365.06 60.7 356.13 63.41 350.72C66.12 345.31 71.49 337.05 75.34 332.37C79.19 327.69 86.16 320.71 90.83 316.85C95.5 313 103.16 307.89 107.84 305.5C112.53 303.1 120.87 300.21 126.38 299.07C132.95 297.7 139.13 297.29 144.39 297.86C148.79 298.33 157.8 299.85 164.41 301.22C171.01 302.59 181.22 305.16 187.09 306.93C192.96 308.7 202.72 312.04 219.78 318.52L219.83 245.8L212.26 236.46C208.09 231.32 200.43 222.64 195.22 217.18C190.01 211.71 181.25 203.09 175.75 198.03C170.24 192.97 161.24 185.66 155.73 181.79C150.23 177.92 142.12 172.93 137.72 170.72C133.32 168.5 126.11 165.64 121.71 164.37C115.24 162.49 110.49 162.19 97.02 162.77C85.89 163.25 77.01 164.44 70.33 166.35C64.83 167.92 54.77 171.88 47.98 175.15C41.2 178.41 32.34 183.79 20.96 193.09L0.61 161.74L3.78 159.27C5.53 157.92 16.56 150.66 28.3 143.15C40.05 135.64 61.06 122.57 75 114.11C88.95 105.64 109.66 93.43 121.04 86.97C132.41 80.51 148.03 72.22 155.73 68.56C163.44 64.89 173.05 60.82 177.08 59.51C181.12 58.2 186.07 57.1 188.09 57.06ZM819.61 167.46L804.99 172.32C805.2 627.4 805.18 770.93 805.08 784.87L804.89 810.22L846.9 831.57L877.66 800.88L879.31 215.11C847 174.78 836.86 162.97 835.93 162.84C835 162.71 827.66 164.79 819.61 167.46ZM459.95 193.43C459.95 199.48 457.55 344.94 454.62 516.67C451.7 688.4 449.3 829.36 449.29 829.91C449.29 830.46 460.51 821.15 474.24 809.22C487.96 797.3 506.72 780.89 515.93 772.77L532.68 758L533.34 224.45L491.32 182.41L459.96 182.42L459.95 193.43ZM721.01 219.89C694.73 241.85 690.72 245.7 690.2 249.47C689.87 251.85 685.02 354.38 679.41 477.31C673.81 600.23 669.42 702.13 669.67 703.75C669.95 705.58 676.73 712.38 687.47 721.61C697.01 729.81 712.77 743.34 722.49 751.69C732.22 760.03 740.77 766.86 741.51 766.86C742.33 766.86 742.84 760.3 742.84 749.85C742.84 740.49 744.91 622.05 747.43 486.65C749.96 351.25 752.33 230.41 752.7 218.13C753.07 205.84 752.89 195.53 752.3 195.22C751.71 194.9 737.63 206 721.01 219.89ZM375.3 240.54L344.68 255.82C345.09 336.99 344.81 429 344.33 512.67L343.46 664.78C294.06 707.18 277.87 720.99 275.61 722.83L271.51 726.16C302.26 743.02 313.88 749.37 317.19 751.15C320.49 752.93 331.6 758.93 341.87 764.48C352.15 770.02 370.76 780.02 383.24 786.7C395.71 793.38 406.02 798.7 406.15 798.53C406.27 798.36 406.81 669.27 407.35 511.67C407.93 341.99 407.83 225.15 407.12 225.19C406.46 225.23 392.14 232.14 375.3 240.54Z" />
</svg>